<?xml version="1.0" standalone="no"?>
<!DOCTYPE svg PUBLIC "-//W3C//DTD SVG 20010904//EN"
 "http://www.w3.org/TR/2001/REC-SVG-20010904/DTD/svg10.dtd">
<svg version="1.0" xmlns="http://www.w3.org/2000/svg"
 width="294.000000pt" height="296.000000pt" viewBox="0 0 294.000000 296.000000"
 preserveAspectRatio="xMidYMid meet">

<g transform="translate(0.000000,296.000000) scale(0.100000,-0.100000)"
fill="#000000" stroke="none">
<path d="M1300 2672 c0 -5 7 -13 16 -16 10 -4 14 -1 12 6 -5 15 -28 23 -28 10z"/>
<path d="M1471 2604 c0 -11 3 -14 6 -6 3 7 2 16 -1 19 -3 4 -6 -2 -5 -13z"/>
<path d="M1357 2583 c-12 -11 -8 -21 13 -26 17 -4 18 -2 9 14 -11 21 -13 22
-22 12z"/>
<path d="M1266 2571 c-4 -7 -5 -15 -2 -18 9 -9 19 4 14 18 -4 11 -6 11 -12 0z"/>
<path d="M1460 2533 c0 -5 5 -15 10 -23 8 -12 10 -11 10 8 0 12 -4 22 -10 22
-5 0 -10 -3 -10 -7z"/>
<path d="M1652 2510 c0 -14 2 -19 5 -12 2 6 2 18 0 25 -3 6 -5 1 -5 -13z"/>
<path d="M1106 2481 c-4 -7 -5 -15 -2 -18 9 -9 19 4 14 18 -4 11 -6 11 -12 0z"/>
<path d="M950 2439 c0 -5 5 -7 10 -4 6 3 10 8 10 11 0 2 -4 4 -10 4 -5 0 -10
-5 -10 -11z"/>
<path d="M740 2430 c0 -5 5 -10 11 -10 5 0 7 5 4 10 -3 6 -8 10 -11 10 -2 0
-4 -4 -4 -10z"/>
<path d="M2255 2390 c-3 -6 1 -7 9 -4 18 7 21 14 7 14 -6 0 -13 -4 -16 -10z"/>
<path d="M1478 2095 c-398 -67 -748 -278 -873 -525 -44 -86 -59 -158 -58 -270
0 -86 5 -118 26 -179 66 -190 233 -343 473 -435 143 -55 172 -55 64 1 -256
130 -406 324 -434 563 -14 113 22 255 95 376 39 64 149 179 226 236 80 58 218
125 308 148 257 65 590 32 820 -83 272 -135 416 -339 416 -587 -1 -166 -57
-294 -186 -425 -115 -118 -247 -200 -405 -255 -73 -25 -244 -60 -292 -60 -17
0 -29 -3 -25 -6 10 -11 230 16 340 41 354 80 612 271 714 530 24 64 27 82 27
200 0 118 -3 137 -27 199 -44 112 -86 176 -172 261 -140 139 -326 226 -577
270 -102 18 -352 18 -460 0z"/>
<path d="M870 2030 c-196 -67 -376 -185 -485 -317 -61 -73 -121 -187 -131
-243 -5 -32 -2 -30 28 25 65 116 92 151 187 246 126 125 238 198 436 284 98
42 80 45 -35 5z"/>
<path d="M1457 1903 c-2 -5 -7 -21 -11 -38 -21 -92 -27 -105 -46 -105 -10 0
-21 8 -24 18 -4 10 -20 40 -36 66 -27 41 -33 46 -46 35 -13 -11 -15 -26 -9
-86 6 -69 6 -73 -14 -73 -12 0 -38 15 -58 33 -44 39 -65 48 -82 38 -9 -6 -6
-24 13 -73 32 -86 23 -95 -61 -56 -36 16 -72 27 -79 24 -23 -9 -16 -41 14 -58
37 -22 75 -65 68 -76 -3 -6 -40 -8 -89 -5 -66 4 -85 2 -95 -9 -14 -18 -3 -27
86 -72 73 -37 66 -55 -21 -57 -55 0 -112 -20 -112 -39 0 -13 34 -24 143 -46
13 -3 22 -12 22 -22 0 -13 -15 -23 -54 -35 -65 -21 -103 -48 -91 -67 6 -10 29
-11 96 -6 109 8 116 -4 32 -61 -107 -73 -99 -95 23 -65 124 32 134 19 47 -62
-54 -51 -63 -76 -26 -76 8 0 44 14 80 32 75 37 100 29 64 -21 -28 -39 -50 -93
-44 -108 7 -20 53 9 96 61 21 25 43 46 48 46 6 0 8 -30 3 -84 -6 -80 0 -104
21 -88 22 15 39 45 55 95 19 59 45 74 54 30 3 -15 10 -54 16 -86 11 -53 30
-80 47 -63 4 3 16 43 28 89 13 51 25 82 34 82 7 0 21 -25 31 -59 19 -60 55
-110 73 -99 6 4 7 38 3 89 -8 103 -1 105 77 28 31 -31 62 -54 69 -51 20 7 11
47 -22 100 -47 75 -28 85 69 36 58 -30 91 -33 91 -9 0 6 -23 33 -51 60 -35 34
-49 54 -45 65 3 10 13 14 23 11 61 -19 168 -35 176 -27 6 6 -18 29 -62 61 -99
72 -95 83 22 75 108 -7 137 3 97 35 -14 10 -54 27 -88 36 -58 16 -84 35 -68
51 3 3 27 9 54 14 73 11 132 29 132 39 0 18 -45 33 -119 39 -100 8 -102 27
-11 73 40 20 66 40 69 52 3 18 -3 19 -80 14 -128 -8 -139 5 -59 66 90 69 53
100 -60 51 -47 -20 -57 -22 -69 -10 -13 12 -10 23 18 76 20 39 29 65 23 71
-13 13 -62 -13 -113 -59 -34 -31 -42 -34 -54 -22 -10 11 -12 29 -6 77 5 43 4
68 -4 79 -16 22 -25 14 -60 -54 -29 -55 -42 -73 -57 -73 -3 0 -18 36 -33 80
-24 72 -44 97 -58 73z m184 -256 c63 -31 126 -93 160 -159 33 -64 38 -176 9
-250 -28 -74 -93 -146 -167 -183 -53 -27 -67 -30 -158 -30 -118 0 -171 21
-245 95 -175 174 -107 458 130 544 70 25 199 17 271 -17z"/>
</g>
</svg>
